<?xml version="1.0" standalone="no"?>
<!DOCTYPE svg PUBLIC "-//W3C//DTD SVG 20010904//EN"
 "http://www.w3.org/TR/2001/REC-SVG-20010904/DTD/svg10.dtd">
<svg version="1.0" xmlns="http://www.w3.org/2000/svg"
 width="339.000000pt" height="149.000000pt" viewBox="0 0 339.000000 149.000000"
 preserveAspectRatio="xMidYMid meet">

<g transform="translate(0.000000,149.000000) scale(0.100000,-0.100000)"
fill="#000000" stroke="none">
<path d="M2316 1052 c-2 -4 4 -8 15 -8 10 0 19 4 19 8 0 10 -27 10 -34 0z"/>
<path d="M2422 1035 c0 -16 2 -22 5 -12 2 9 2 23 0 30 -3 6 -5 -1 -5 -18z"/>
<path d="M2490 1033 c1 -13 30 -48 30 -36 0 7 -5 15 -12 19 -8 5 -6 10 8 15
17 7 17 8 -3 8 -13 1 -23 -2 -23 -6z"/>
<path d="M2203 1014 c-3 -8 -2 -19 3 -24 5 -5 9 1 9 16 0 28 -3 30 -12 8z"/>
<path d="M2238 1003 c5 -21 7 -23 10 -9 2 10 0 22 -6 28 -6 6 -7 0 -4 -19z"/>
<path d="M2310 1020 c0 -5 5 -10 11 -10 5 0 7 5 4 10 -3 6 -8 10 -11 10 -2 0
-4 -4 -4 -10z"/>
<path d="M2348 1025 c-4 -4 -4 -13 -2 -20 3 -7 -3 -15 -13 -18 -17 -4 -17 -5
0 -6 10 0 20 6 23 14 7 17 1 39 -8 30z"/>
<path d="M2584 984 c-13 -19 -14 -28 -5 -37 10 -9 11 -8 6 5 -5 11 -2 20 7 23
8 3 15 12 15 20 0 21 -4 19 -23 -11z"/>
<path d="M2110 953 c27 -38 33 -39 51 -15 11 14 11 15 -1 5 -11 -11 -19 -8
-43 15 l-30 27 23 -32z"/>
<path d="M2644 918 l-19 -23 23 19 c12 11 22 21 22 23 0 8 -8 2 -26 -19z"/>
<path d="M2040 886 c0 -15 -3 -16 -15 -6 -8 7 -15 10 -15 7 0 -3 15 -16 33
-28 21 -16 27 -17 18 -6 -12 15 -11 17 10 18 21 1 21 2 4 6 -11 3 -23 10 -27
17 -5 7 -8 4 -8 -8z"/>
<path d="M2690 865 c-7 -9 -10 -18 -6 -22 3 -3 6 -1 6 6 0 6 10 16 23 21 15 6
17 9 6 9 -9 1 -22 -6 -29 -14z"/>
<path d="M1965 777 c14 -34 76 -28 75 7 0 6 -5 3 -11 -6 -13 -23 -27 -23 -51
-1 -17 15 -18 15 -13 0z"/>
<path d="M2762 776 c7 -8 15 -12 17 -11 5 6 -10 25 -20 25 -5 0 -4 -6 3 -14z"/>
<path d="M2721 768 c-1 -21 15 -32 25 -17 4 7 3 9 -4 5 -6 -3 -13 2 -15 11 -4
16 -5 16 -6 1z"/>
<path d="M374 755 c-48 -33 -55 -124 -13 -166 20 -20 93 -27 104 -9 4 6 -10
10 -34 10 -48 0 -71 26 -71 81 0 29 6 43 27 58 15 13 34 19 44 16 25 -8 46 4
28 16 -21 13 -62 11 -85 -6z"/>
<path d="M1152 758 c6 -18 28 -21 28 -4 0 9 -7 16 -16 16 -9 0 -14 -5 -12 -12z"/>
<path d="M1470 754 c0 -17 22 -14 28 4 2 7 -3 12 -12 12 -9 0 -16 -7 -16 -16z"/>
<path d="M2170 670 c0 -60 4 -100 10 -100 6 0 10 5 10 10 0 6 12 15 27 21 22
8 32 6 54 -11 37 -27 140 -28 172 -2 19 15 22 25 19 82 -2 37 1 61 5 55 33
-38 83 -104 83 -109 0 -3 -12 -6 -26 -6 l-27 0 26 -20 c36 -29 57 -26 57 8 0
20 -18 47 -66 100 -65 71 -66 72 -117 72 l-50 0 22 -24 22 -24 -23 -16 c-20
-15 -23 -15 -26 -1 -3 11 -18 15 -63 15 -33 0 -59 4 -59 10 0 6 27 10 60 10
47 0 60 3 60 15 0 12 -16 15 -85 15 l-85 0 0 -100z m85 9 c-4 -5 19 -9 54 -9
33 0 63 -4 66 -10 4 -6 -18 -10 -59 -10 -54 0 -64 -3 -60 -15 9 -21 -10 -19
-31 5 -17 19 -17 21 0 40 17 19 41 18 30 -1z"/>
<path d="M510 665 c0 -78 3 -95 15 -95 11 0 15 11 15 42 l0 42 45 -44 c30 -29
48 -41 55 -34 7 7 -3 23 -30 49 -22 21 -40 44 -40 49 0 6 14 25 32 43 17 18
28 36 24 40 -4 5 -26 -12 -47 -36 l-39 -44 0 42 c0 30 -4 41 -15 41 -12 0 -15
-17 -15 -95z"/>
<path d="M680 665 l0 -95 60 0 c33 0 60 4 60 10 0 6 -20 10 -45 10 l-45 0 0
85 c0 69 -3 85 -15 85 -12 0 -15 -17 -15 -95z"/>
<path d="M1370 740 c0 -10 -8 -24 -17 -30 -13 -8 -14 -13 -5 -16 6 -3 12 -21
12 -39 0 -58 16 -85 50 -85 16 0 30 5 30 10 0 6 -11 10 -25 10 -23 0 -25 3
-25 50 0 43 3 50 20 50 11 0 20 5 20 10 0 6 -9 10 -20 10 -15 0 -20 7 -20 25
0 14 -4 25 -10 25 -5 0 -10 -9 -10 -20z"/>
<path d="M835 695 c-49 -48 -19 -125 49 -125 42 0 66 26 66 73 0 71 -67 101
-115 52z m93 -43 c9 -56 -53 -85 -83 -38 -19 28 -6 72 22 79 25 6 57 -16 61
-41z"/>
<path d="M1005 695 c-51 -50 -16 -133 51 -122 39 7 43 -4 14 -33 -14 -14 -28
-18 -45 -14 -15 4 -25 2 -25 -5 0 -17 76 -13 94 5 12 11 16 36 16 98 l0 84
-31 6 c-46 9 -48 8 -74 -19z m66 -5 c13 -7 19 -21 19 -43 0 -36 -15 -57 -41
-57 -40 0 -57 72 -23 97 21 16 20 16 45 3z"/>
<path d="M1236 707 c-27 -20 -16 -49 27 -72 45 -24 43 -40 -6 -40 -23 0 -37
-5 -37 -12 0 -8 14 -13 39 -13 71 0 82 52 19 83 -21 10 -38 23 -38 28 0 11 46
23 59 15 5 -4 12 -2 15 3 13 21 -51 28 -78 8z"/>
<path d="M1555 696 c-29 -29 -33 -71 -9 -104 11 -16 25 -22 55 -22 21 0 39 5
39 10 0 6 -13 10 -28 10 -37 0 -52 17 -52 57 0 26 5 35 25 43 14 5 32 7 41 3
12 -4 15 -2 12 8 -8 25 -55 22 -83 -5z"/>
<path d="M1688 709 c-30 -17 -21 -47 22 -74 47 -30 44 -48 -9 -43 -20 2 -36
-2 -36 -7 0 -15 74 -18 91 -4 25 20 12 52 -28 72 -21 10 -38 23 -38 28 0 11
46 23 59 15 5 -4 12 -2 15 3 3 5 -4 11 -17 15 -30 8 -39 7 -59 -5z"/>
<path d="M1160 640 c0 -40 4 -70 10 -70 6 0 10 30 10 70 0 40 -4 70 -10 70 -6
0 -10 -30 -10 -70z"/>
<path d="M1470 640 c0 -40 4 -70 10 -70 6 0 10 30 10 70 0 40 -4 70 -10 70 -6
0 -10 -30 -10 -70z"/>
<path d="M1967 664 c-13 -13 -7 -42 10 -48 21 -8 36 6 31 30 -3 19 -29 30 -41
18z"/>
<path d="M2480 650 c0 -11 7 -20 15 -20 13 0 14 4 5 20 -6 11 -13 20 -15 20
-3 0 -5 -9 -5 -20z"/>
<path d="M2743 654 c-3 -8 2 -23 11 -32 15 -15 17 -15 32 0 21 21 11 48 -16
48 -11 0 -23 -7 -27 -16z"/>
<path d="M2206 564 c-9 -23 -8 -31 9 -47 31 -32 83 14 55 48 -16 20 -56 19
-64 -1z"/>
<path d="M2457 573 c-14 -14 -6 -53 13 -63 28 -15 65 22 50 50 -10 19 -49 27
-63 13z"/>
<path d="M1992 528 c-7 -7 -12 -21 -11 -32 1 -18 2 -17 8 4 8 31 40 38 58 14
7 -10 13 -13 13 -8 0 15 -22 34 -40 34 -9 0 -21 -5 -28 -12z"/>
<path d="M2721 523 c-1 -16 22 -29 27 -15 2 7 8 12 14 12 6 0 7 -8 3 -17 -5
-15 -4 -16 6 -5 19 18 -4 40 -25 23 -11 -9 -15 -9 -19 1 -4 9 -6 9 -6 1z"/>
<path d="M2683 444 c-3 -8 -2 -19 3 -24 5 -5 9 1 9 16 0 28 -3 30 -12 8z"/>
<path d="M2050 430 c-16 -13 -19 -18 -7 -14 15 6 17 2 12 -22 -5 -29 -5 -29 5
-4 7 14 12 30 13 35 1 6 7 13 12 17 7 5 7 8 0 8 -5 0 -21 -9 -35 -20z"/>
<path d="M2720 415 c-11 -13 -10 -14 4 -9 9 3 16 10 16 15 0 13 -6 11 -20 -6z"/>
<path d="M2132 357 c-26 -28 -27 -40 -5 -58 15 -13 15 -12 2 8 -12 20 -11 25
11 48 13 14 21 25 18 25 -2 0 -14 -10 -26 -23z"/>
<path d="M2640 372 c0 -5 7 -15 15 -22 8 -7 15 -8 15 -2 0 5 -7 15 -15 22 -8
7 -15 8 -15 2z"/>
<path d="M2561 342 c-1 -19 36 -55 51 -49 9 4 7 6 -4 6 -16 1 -23 12 -19 34 1
5 -3 6 -8 3 -5 -4 -12 0 -14 6 -4 10 -6 10 -6 0z"/>
<path d="M2204 295 c-8 -21 2 -45 19 -45 8 0 20 7 27 15 10 12 10 18 0 30 -7
8 -19 15 -27 15 -7 0 -16 -7 -19 -15z m41 -16 c0 -7 -8 -15 -17 -17 -18 -3
-25 18 -11 32 10 10 28 1 28 -15z"/>
<path d="M2317 273 c-13 -12 -7 -39 12 -55 18 -15 20 -15 25 5 10 39 7 57 -12
57 -10 0 -22 -3 -25 -7z m33 -23 c0 -11 -7 -20 -15 -20 -8 0 -15 9 -15 20 0
11 7 20 15 20 8 0 15 -9 15 -20z"/>
<path d="M2422 250 c0 -19 2 -27 5 -17 2 9 2 25 0 35 -3 9 -5 1 -5 -18z"/>
<path d="M2512 254 c-7 -8 -8 -14 -3 -14 10 0 25 19 20 25 -2 1 -10 -3 -17
-11z"/>
</g>
</svg>
