<?xml version="1.0" standalone="no"?>
<!DOCTYPE svg PUBLIC "-//W3C//DTD SVG 20010904//EN"
 "http://www.w3.org/TR/2001/REC-SVG-20010904/DTD/svg10.dtd">
<svg version="1.0" xmlns="http://www.w3.org/2000/svg"
 width="288.000000pt" height="65.000000pt" viewBox="0 0 288.000000 65.000000"
 preserveAspectRatio="xMidYMid meet">

<g transform="translate(0.000000,65.000000) scale(0.100000,-0.100000)"
fill="#000000" stroke="none">
<path d="M0 325 l0 -325 1440 0 1440 0 0 325 0 325 -1440 0 -1440 0 0 -325z
m1696 120 c0 -35 0 -35 -45 -35 -46 0 -46 0 -46 35 0 35 0 35 46 35 45 0 45 0
45 -35z m546 0 c-4 -34 -6 -35 -46 -35 -41 0 -42 1 -42 35 0 35 0 35 46 35
l46 0 -4 -35z m-1852 4 c3 0 20 0 38 1 32 2 32 1 32 -44 0 -45 0 -46 -33 -46
-26 0 -36 6 -45 25 -13 27 -49 34 -70 13 -18 -18 -15 -113 4 -133 22 -22 46
-15 62 18 11 22 20 27 48 27 32 0 34 -2 34 -34 0 -28 -4 -35 -25 -40 -14 -4
-25 -11 -25 -16 0 -6 -30 -10 -68 -10 -56 0 -72 4 -87 20 -10 11 -23 20 -29
20 -7 0 -11 29 -11 80 0 65 3 81 16 85 9 3 23 13 32 23 12 13 29 17 69 15 29
-1 55 -3 58 -4z m240 -15 c0 -12 -7 -24 -15 -28 -19 -7 -19 -45 0 -52 19 -8
65 22 65 41 0 8 -4 15 -10 15 -5 0 -10 9 -10 20 0 18 7 20 60 20 52 0 60 -2
60 -19 0 -10 -7 -21 -15 -25 -8 -3 -20 -17 -27 -31 -6 -14 -17 -25 -25 -25
-21 0 -15 -21 7 -27 12 -3 27 -18 36 -34 8 -16 19 -29 24 -29 6 0 10 -11 10
-25 0 -24 -3 -25 -56 -25 l-57 0 6 39 c6 46 -14 71 -56 71 -23 0 -27 -4 -27
-30 0 -20 5 -30 15 -30 9 0 15 -9 15 -25 0 -24 -2 -25 -65 -25 -63 0 -65 1
-65 25 0 15 6 25 15 25 20 0 20 139 -1 147 -8 3 -14 15 -14 27 0 19 5 21 65
21 60 0 65 -2 65 -21z m323 -4 c3 -12 -2 -20 -14 -23 -16 -4 -18 -14 -16 -78
2 -72 3 -74 29 -77 29 -3 44 22 34 56 -5 16 -1 18 28 18 l35 -1 -2 -57 -2 -58
-112 0 -113 0 0 25 c0 15 6 25 14 25 20 0 19 139 0 147 -8 3 -14 15 -14 27 0
20 4 21 64 18 52 -3 65 -7 69 -22z m609 -10 c-2 -16 -7 -29 -11 -28 -39 5 -56
-16 -21 -27 16 -5 20 -15 20 -46 0 -26 -4 -39 -14 -39 -7 0 -19 -6 -25 -14 -6
-7 -22 -11 -35 -9 -13 3 -27 0 -30 -6 -5 -7 7 -11 36 -11 53 -1 85 -25 86 -65
1 -39 -31 -55 -108 -55 -78 0 -110 16 -110 57 0 22 6 36 20 43 11 6 20 17 20
25 0 8 -9 20 -20 27 -14 9 -20 24 -20 49 0 45 31 69 90 69 37 0 41 3 47 30 5
27 9 30 43 30 35 0 36 -1 32 -30z m478 -5 c0 -22 4 -25 35 -25 30 0 35 -3 35
-23 0 -18 -5 -22 -32 -22 -32 0 -33 -1 -36 -47 -2 -38 0 -48 12 -48 9 0 16 7
16 15 0 9 9 15 25 15 19 0 25 -5 25 -22 0 -44 -102 -66 -137 -30 -14 13 -17
30 -15 70 2 42 0 52 -12 52 -9 0 -16 9 -16 20 0 11 7 20 15 20 8 0 15 7 15 15
0 15 31 33 58 34 6 1 12 -10 12 -24z m-144 -25 c8 0 14 -10 14 -25 0 -20 -5
-25 -25 -25 -14 0 -34 5 -45 12 -10 7 -22 9 -26 6 -12 -13 7 -27 44 -34 48 -9
62 -20 62 -54 0 -48 -29 -59 -147 -51 -17 1 -23 7 -23 25 0 19 5 24 27 24 15
0 33 -7 41 -15 10 -9 18 -11 24 -5 17 17 -2 32 -39 32 -41 0 -62 21 -63 61 0
17 8 30 23 37 24 12 83 21 105 15 8 -1 20 -3 28 -3z m594 -42 c0 -24 -4 -28
-30 -28 -18 0 -33 6 -36 15 -10 24 -43 18 -50 -9 -10 -42 -1 -71 24 -74 13 -2
25 3 28 12 4 10 18 16 35 16 24 0 29 -4 29 -24 0 -44 -106 -62 -165 -28 -28
16 -30 21 -30 75 0 36 4 57 11 57 6 0 17 7 24 14 15 18 84 24 128 11 26 -8 32
-15 32 -37z m200 16 c0 -19 -5 -24 -25 -24 -14 0 -34 5 -45 12 -10 7 -22 9
-26 6 -12 -13 7 -27 44 -34 48 -9 62 -20 62 -53 0 -39 -27 -56 -85 -55 -82 1
-85 2 -85 28 0 19 5 24 27 24 15 0 33 -7 41 -15 10 -9 18 -11 24 -5 17 17 -2
32 -39 32 -41 0 -62 21 -63 61 0 30 27 47 80 51 66 6 90 -2 90 -28z m-1423 9
c27 -15 29 -20 27 -75 -1 -54 -4 -61 -29 -74 -38 -20 -118 -18 -152 4 -25 15
-28 23 -28 75 0 36 4 57 11 57 6 0 17 7 24 15 17 21 110 20 147 -2z m426 -39
c-5 -48 -3 -59 12 -70 10 -8 19 -23 20 -34 2 -18 -4 -20 -67 -20 -65 0 -68 1
-68 24 0 15 7 26 20 29 15 4 20 14 20 37 0 23 -5 33 -20 37 -13 3 -20 14 -20
29 0 22 4 24 54 24 l55 0 -6 -56z m549 -4 c-4 -48 -1 -61 12 -66 9 -3 16 -17
16 -30 0 -23 -3 -24 -65 -24 -62 0 -65 1 -65 24 0 15 7 26 20 29 15 4 20 14
20 37 0 23 -5 33 -20 37 -13 3 -20 14 -20 29 0 22 4 24 53 24 l53 0 -4 -60z"/>
<path d="M1420 325 c0 -31 26 -43 47 -22 21 21 9 47 -22 47 -20 0 -25 -5 -25
-25z"/>
<path d="M1434 195 c-19 -15 -19 -15 0 -30 19 -15 56 -5 56 15 0 20 -37 30
-56 15z"/>
<path d="M1165 327 c-12 -46 -2 -72 25 -72 23 0 25 4 25 45 0 39 -3 45 -22 48
-17 2 -24 -3 -28 -21z"/>
</g>
</svg>
